<mxfile host="Electron" modified="2024-05-16T06:45:37.121Z" agent="Mozilla/5.0 (Windows NT 10.0; Win64; x64) AppleWebKit/537.36 (KHTML, like Gecko) draw.io/24.2.5 Chrome/120.0.6099.109 Electron/28.1.0 Safari/537.36" etag="OjDRqMX888wKHakoezlZ" version="24.2.5" type="device">
  <diagram name="Page-1" id="RTpdcoy5EEb6RFuiyEkF">
    <mxGraphModel dx="1035" dy="626" grid="1" gridSize="10" guides="1" tooltips="1" connect="1" arrows="1" fold="1" page="1" pageScale="1" pageWidth="1100" pageHeight="850" math="0" shadow="0">
      <root>
        <mxCell id="0" />
        <mxCell id="1" parent="0" />
        <mxCell id="0mXS8aDtujnyPfdJIkCh-26" value="" style="swimlane;childLayout=stackLayout;horizontal=1;startSize=70;horizontalStack=0;rounded=1;fontSize=14;fontStyle=0;strokeWidth=2;resizeParent=0;resizeLast=1;shadow=0;dashed=0;align=center;arcSize=29;whiteSpace=wrap;html=1;" parent="1" vertex="1">
          <mxGeometry x="410" y="310" width="194.45" height="200" as="geometry" />
        </mxCell>
        <mxCell id="0mXS8aDtujnyPfdJIkCh-27" value="&lt;div style=&quot;font-size: 25px;&quot;&gt;&lt;font style=&quot;font-size: 25px;&quot;&gt;&lt;br style=&quot;&quot;&gt;&lt;/font&gt;&lt;/div&gt;&lt;span style=&quot;font-size: 25px;&quot;&gt;Proposed&lt;/span&gt;&lt;br&gt;&lt;div style=&quot;font-size: 25px;&quot;&gt;&lt;font style=&quot;font-size: 25px;&quot;&gt;Payroll System&lt;/font&gt;&lt;/div&gt;" style="align=center;strokeColor=none;fillColor=none;spacingLeft=4;fontSize=20;verticalAlign=top;resizable=0;rotatable=0;part=1;html=1;" parent="0mXS8aDtujnyPfdJIkCh-26" vertex="1">
          <mxGeometry y="70" width="194.45" height="130" as="geometry" />
        </mxCell>
        <mxCell id="0mXS8aDtujnyPfdJIkCh-28" style="edgeStyle=orthogonalEdgeStyle;rounded=0;orthogonalLoop=1;jettySize=auto;html=1;exitX=-0.008;exitY=0.552;exitDx=0;exitDy=0;exitPerimeter=0;strokeWidth=4;entryX=0.845;entryY=0.992;entryDx=0;entryDy=0;entryPerimeter=0;startArrow=classic;startFill=1;endArrow=none;endFill=0;" parent="1" source="0mXS8aDtujnyPfdJIkCh-51" target="0mXS8aDtujnyPfdJIkCh-27" edge="1">
          <mxGeometry relative="1" as="geometry">
            <mxPoint x="570" y="550" as="targetPoint" />
            <mxPoint x="778.8" y="597.1600000000001" as="sourcePoint" />
            <Array as="points">
              <mxPoint x="570" y="693" />
              <mxPoint x="570" y="509" />
            </Array>
          </mxGeometry>
        </mxCell>
        <mxCell id="0mXS8aDtujnyPfdJIkCh-30" style="edgeStyle=orthogonalEdgeStyle;rounded=0;orthogonalLoop=1;jettySize=auto;html=1;entryX=0.686;entryY=-0.008;entryDx=0;entryDy=0;entryPerimeter=0;strokeWidth=4;" parent="1" source="0mXS8aDtujnyPfdJIkCh-27" edge="1">
          <mxGeometry relative="1" as="geometry">
            <mxPoint x="157.20000000000005" y="568.56" as="targetPoint" />
          </mxGeometry>
        </mxCell>
        <mxCell id="0mXS8aDtujnyPfdJIkCh-36" value="&lt;font style=&quot;font-size: 15px;&quot;&gt;Payroll Summary&lt;/font&gt;" style="text;strokeColor=none;align=center;fillColor=none;html=1;verticalAlign=middle;whiteSpace=wrap;rounded=0;" parent="1" vertex="1">
          <mxGeometry x="170" y="410" width="130" height="30" as="geometry" />
        </mxCell>
        <mxCell id="0mXS8aDtujnyPfdJIkCh-37" value="&lt;span style=&quot;font-size: 15px;&quot;&gt;Printed Payroll Report&lt;/span&gt;" style="text;strokeColor=none;align=center;fillColor=none;html=1;verticalAlign=middle;whiteSpace=wrap;rounded=0;" parent="1" vertex="1">
          <mxGeometry x="600" y="700" width="190" height="30" as="geometry" />
        </mxCell>
        <mxCell id="0mXS8aDtujnyPfdJIkCh-38" value="&lt;font style=&quot;font-size: 15px;&quot;&gt;Payroll Record&lt;/font&gt;" style="text;strokeColor=none;align=center;fillColor=none;html=1;verticalAlign=middle;whiteSpace=wrap;rounded=0;" parent="1" vertex="1">
          <mxGeometry x="300" y="140" width="160" height="30" as="geometry" />
        </mxCell>
        <mxCell id="0mXS8aDtujnyPfdJIkCh-80" style="edgeStyle=orthogonalEdgeStyle;rounded=0;orthogonalLoop=1;jettySize=auto;html=1;exitX=0;exitY=0;exitDx=57.5;exitDy=180;exitPerimeter=0;entryX=0;entryY=0;entryDx=0;entryDy=0;strokeWidth=3;" parent="1" source="0mXS8aDtujnyPfdJIkCh-41" target="0mXS8aDtujnyPfdJIkCh-27" edge="1">
          <mxGeometry relative="1" as="geometry">
            <Array as="points">
              <mxPoint x="128" y="380" />
            </Array>
          </mxGeometry>
        </mxCell>
        <mxCell id="0mXS8aDtujnyPfdJIkCh-41" value="" style="html=1;dashed=0;whiteSpace=wrap;shape=mxgraph.dfd.externalEntity" parent="1" vertex="1">
          <mxGeometry x="70" y="80" width="200" height="180" as="geometry" />
        </mxCell>
        <mxCell id="0mXS8aDtujnyPfdJIkCh-43" value="&lt;font style=&quot;font-size: 30px;&quot;&gt;President&lt;/font&gt;" style="text;strokeColor=none;align=center;fillColor=none;html=1;verticalAlign=middle;whiteSpace=wrap;rounded=0;" parent="0mXS8aDtujnyPfdJIkCh-41" vertex="1">
          <mxGeometry x="20" y="20" width="180" height="150" as="geometry" />
        </mxCell>
        <mxCell id="0mXS8aDtujnyPfdJIkCh-44" value="&lt;span style=&quot;font-size: 15px;&quot;&gt;Employee RFID Scan&lt;/span&gt;" style="text;strokeColor=none;align=center;fillColor=none;html=1;verticalAlign=middle;whiteSpace=wrap;rounded=0;" parent="1" vertex="1">
          <mxGeometry x="452.00000000000006" y="100" width="190" height="30" as="geometry" />
        </mxCell>
        <mxCell id="0mXS8aDtujnyPfdJIkCh-45" value="&lt;b&gt;&lt;i&gt;&lt;font style=&quot;font-size: 13px;&quot;&gt;Context Diagram of the Proposed Payroll System of Computer Systems Institute&amp;nbsp;&lt;/font&gt;&lt;/i&gt;&lt;/b&gt;" style="text;strokeColor=none;align=center;fillColor=none;html=1;verticalAlign=middle;whiteSpace=wrap;rounded=0;" parent="1" vertex="1">
          <mxGeometry x="240" y="780" width="520" height="30" as="geometry" />
        </mxCell>
        <mxCell id="0mXS8aDtujnyPfdJIkCh-46" value="" style="html=1;dashed=0;whiteSpace=wrap;shape=mxgraph.dfd.externalEntity" parent="1" vertex="1">
          <mxGeometry x="60" y="570" width="170" height="153" as="geometry" />
        </mxCell>
        <mxCell id="0mXS8aDtujnyPfdJIkCh-48" value="&lt;font style=&quot;font-size: 30px;&quot;&gt;Employee&lt;/font&gt;" style="text;strokeColor=none;align=center;fillColor=none;html=1;verticalAlign=middle;whiteSpace=wrap;rounded=0;" parent="0mXS8aDtujnyPfdJIkCh-46" vertex="1">
          <mxGeometry x="17" y="12.75" width="153" height="127.5" as="geometry" />
        </mxCell>
        <mxCell id="0mXS8aDtujnyPfdJIkCh-51" value="" style="html=1;dashed=0;whiteSpace=wrap;shape=mxgraph.dfd.externalEntity" parent="1" vertex="1">
          <mxGeometry x="840" y="610" width="166.67" height="150" as="geometry" />
        </mxCell>
        <mxCell id="0mXS8aDtujnyPfdJIkCh-50" value="&lt;font style=&quot;font-size: 30px;&quot;&gt;Cashier&lt;/font&gt;" style="text;strokeColor=none;align=center;fillColor=none;html=1;verticalAlign=middle;whiteSpace=wrap;rounded=0;" parent="0mXS8aDtujnyPfdJIkCh-51" vertex="1">
          <mxGeometry x="16.667" y="12.50333333333333" width="150.003" height="125" as="geometry" />
        </mxCell>
        <mxCell id="0mXS8aDtujnyPfdJIkCh-81" style="edgeStyle=orthogonalEdgeStyle;rounded=0;orthogonalLoop=1;jettySize=auto;html=1;exitX=0.5;exitY=0;exitDx=0;exitDy=0;entryX=0;entryY=0;entryDx=200;entryDy=95;entryPerimeter=0;strokeWidth=3;" parent="1" source="0mXS8aDtujnyPfdJIkCh-26" target="0mXS8aDtujnyPfdJIkCh-41" edge="1">
          <mxGeometry relative="1" as="geometry" />
        </mxCell>
        <mxCell id="0mXS8aDtujnyPfdJIkCh-86" style="edgeStyle=orthogonalEdgeStyle;rounded=0;orthogonalLoop=1;jettySize=auto;html=1;exitX=0;exitY=0;exitDx=0;exitDy=105;exitPerimeter=0;strokeWidth=3;" parent="1" source="0mXS8aDtujnyPfdJIkCh-82" edge="1">
          <mxGeometry relative="1" as="geometry">
            <mxPoint x="550" y="300" as="targetPoint" />
          </mxGeometry>
        </mxCell>
        <mxCell id="0mXS8aDtujnyPfdJIkCh-82" value="" style="html=1;dashed=0;whiteSpace=wrap;shape=mxgraph.dfd.externalEntity" parent="1" vertex="1">
          <mxGeometry x="623.33" y="30" width="166.67" height="150" as="geometry" />
        </mxCell>
        <mxCell id="0mXS8aDtujnyPfdJIkCh-84" value="&lt;font style=&quot;font-size: 30px;&quot;&gt;RFID&lt;/font&gt;" style="text;strokeColor=none;align=center;fillColor=none;html=1;verticalAlign=middle;whiteSpace=wrap;rounded=0;" parent="0mXS8aDtujnyPfdJIkCh-82" vertex="1">
          <mxGeometry x="8.337" y="15.003333333333337" width="150.003" height="125" as="geometry" />
        </mxCell>
        <mxCell id="0mXS8aDtujnyPfdJIkCh-87" style="edgeStyle=orthogonalEdgeStyle;rounded=0;orthogonalLoop=1;jettySize=auto;html=1;exitX=1;exitY=0.25;exitDx=0;exitDy=0;entryX=0;entryY=0;entryDx=127.5025;entryDy=150;entryPerimeter=0;strokeWidth=3;" parent="1" source="0mXS8aDtujnyPfdJIkCh-26" target="0mXS8aDtujnyPfdJIkCh-82" edge="1">
          <mxGeometry relative="1" as="geometry" />
        </mxCell>
        <mxCell id="0mXS8aDtujnyPfdJIkCh-88" value="&lt;span style=&quot;font-size: 15px;&quot;&gt;RFID Scan Result&lt;/span&gt;" style="text;strokeColor=none;align=center;fillColor=none;html=1;verticalAlign=middle;whiteSpace=wrap;rounded=0;" parent="1" vertex="1">
          <mxGeometry x="580" y="360" width="190" height="30" as="geometry" />
        </mxCell>
        <mxCell id="0mXS8aDtujnyPfdJIkCh-89" value="" style="html=1;dashed=0;whiteSpace=wrap;shape=mxgraph.dfd.externalEntity" parent="1" vertex="1">
          <mxGeometry x="900" y="230" width="166.67" height="150" as="geometry" />
        </mxCell>
        <mxCell id="0mXS8aDtujnyPfdJIkCh-92" style="edgeStyle=orthogonalEdgeStyle;rounded=0;orthogonalLoop=1;jettySize=auto;html=1;exitX=1;exitY=0.5;exitDx=0;exitDy=0;entryX=0.438;entryY=1.029;entryDx=0;entryDy=0;entryPerimeter=0;strokeWidth=3;" parent="1" source="0mXS8aDtujnyPfdJIkCh-27" target="0mXS8aDtujnyPfdJIkCh-89" edge="1">
          <mxGeometry relative="1" as="geometry">
            <mxPoint x="800" y="445.7142857142858" as="targetPoint" />
            <Array as="points">
              <mxPoint x="973" y="445" />
            </Array>
          </mxGeometry>
        </mxCell>
        <mxCell id="0mXS8aDtujnyPfdJIkCh-93" value="&lt;span style=&quot;font-size: 15px;&quot;&gt;SMS Attendance Confirmation&lt;/span&gt;" style="text;strokeColor=none;align=center;fillColor=none;html=1;verticalAlign=middle;whiteSpace=wrap;rounded=0;" parent="1" vertex="1">
          <mxGeometry x="670" y="450" width="290" height="30" as="geometry" />
        </mxCell>
        <mxCell id="0mXS8aDtujnyPfdJIkCh-96" value="&lt;font style=&quot;font-size: 15px;&quot;&gt;Employee Schedule Detail&lt;/font&gt;" style="text;strokeColor=none;align=center;fillColor=none;html=1;verticalAlign=middle;whiteSpace=wrap;rounded=0;" parent="1" vertex="1">
          <mxGeometry x="140" y="350" width="190" height="30" as="geometry" />
        </mxCell>
        <mxCell id="0mXS8aDtujnyPfdJIkCh-97" style="edgeStyle=orthogonalEdgeStyle;rounded=0;orthogonalLoop=1;jettySize=auto;html=1;exitX=0;exitY=0;exitDx=152.5;exitDy=180;exitPerimeter=0;entryX=0;entryY=0.15;entryDx=0;entryDy=0;entryPerimeter=0;strokeWidth=3;" parent="1" source="0mXS8aDtujnyPfdJIkCh-41" target="0mXS8aDtujnyPfdJIkCh-26" edge="1">
          <mxGeometry relative="1" as="geometry" />
        </mxCell>
        <mxCell id="0mXS8aDtujnyPfdJIkCh-98" value="&lt;font style=&quot;font-size: 15px;&quot;&gt;Employee List&lt;/font&gt;" style="text;strokeColor=none;align=center;fillColor=none;html=1;verticalAlign=middle;whiteSpace=wrap;rounded=0;" parent="1" vertex="1">
          <mxGeometry x="210" y="310" width="190" height="30" as="geometry" />
        </mxCell>
        <mxCell id="0mXS8aDtujnyPfdJIkCh-99" style="edgeStyle=orthogonalEdgeStyle;rounded=0;orthogonalLoop=1;jettySize=auto;html=1;exitX=1;exitY=0.25;exitDx=0;exitDy=0;entryX=0.206;entryY=1.033;entryDx=0;entryDy=0;entryPerimeter=0;strokeWidth=3;" parent="1" source="0mXS8aDtujnyPfdJIkCh-48" target="0mXS8aDtujnyPfdJIkCh-27" edge="1">
          <mxGeometry relative="1" as="geometry" />
        </mxCell>
        <mxCell id="0mXS8aDtujnyPfdJIkCh-100" value="&lt;font style=&quot;font-size: 15px;&quot;&gt;Verify Information&lt;/font&gt;" style="text;strokeColor=none;align=center;fillColor=none;html=1;verticalAlign=middle;whiteSpace=wrap;rounded=0;" parent="1" vertex="1">
          <mxGeometry x="260" y="580" width="130" height="30" as="geometry" />
        </mxCell>
        <mxCell id="0mXS8aDtujnyPfdJIkCh-103" value="&lt;font style=&quot;font-size: 24px;&quot;&gt;0&lt;/font&gt;" style="text;strokeColor=none;align=center;fillColor=none;html=1;verticalAlign=middle;whiteSpace=wrap;rounded=0;" parent="1" vertex="1">
          <mxGeometry x="478" y="328" width="60" height="30" as="geometry" />
        </mxCell>
        <mxCell id="0mXS8aDtujnyPfdJIkCh-91" value="&lt;font style=&quot;font-size: 30px;&quot;&gt;Dean&lt;/font&gt;" style="text;strokeColor=none;align=center;fillColor=none;html=1;verticalAlign=middle;whiteSpace=wrap;rounded=0;" parent="1" vertex="1">
          <mxGeometry x="916.6669999999999" y="242.50333333333333" width="150.003" height="125" as="geometry" />
        </mxCell>
        <mxCell id="AGBDPQIrFyl5TKIe0EX6-1" style="edgeStyle=orthogonalEdgeStyle;rounded=0;orthogonalLoop=1;jettySize=auto;html=1;exitX=1;exitY=0.75;exitDx=0;exitDy=0;entryX=0.313;entryY=0.002;entryDx=0;entryDy=0;entryPerimeter=0;strokeWidth=3;" edge="1" parent="1" source="0mXS8aDtujnyPfdJIkCh-43" target="0mXS8aDtujnyPfdJIkCh-26">
          <mxGeometry relative="1" as="geometry" />
        </mxCell>
        <mxCell id="AGBDPQIrFyl5TKIe0EX6-2" value="&lt;font style=&quot;font-size: 15px;&quot;&gt;Cash Advance Report&lt;/font&gt;" style="text;strokeColor=none;align=center;fillColor=none;html=1;verticalAlign=middle;whiteSpace=wrap;rounded=0;" vertex="1" parent="1">
          <mxGeometry x="280" y="212.5" width="160" height="30" as="geometry" />
        </mxCell>
      </root>
    </mxGraphModel>
  </diagram>
</mxfile>
